<svg width="24" height="24" viewBox="0 0 24 24" fill="none" xmlns="http://www.w3.org/2000/svg">
<circle cx="12" cy="5" r="4" stroke="black" stroke-width="2"/>
<circle cx="12" cy="5" r="0.5" stroke="black"/>
<path d="M16.2002 10.1807C17.1685 9.90522 18.0811 10.3391 18.5547 11.1953L18.6338 11.3486C18.8099 11.7118 18.9164 12.1121 18.9004 12.5303C18.8816 13.0212 18.696 13.4765 18.3633 13.8555H18.3623C17.646 14.6707 16.7879 15.2555 15.8516 15.6582C15.5304 15.7962 15.1108 15.915 14.7129 16.0137C15.6095 17.0099 16.5117 18.0089 17.4053 19.0107C18.027 19.7082 18.1713 20.6219 17.8203 21.4531C17.4692 22.2842 16.6278 22.9605 15.6426 22.8857H15.6416C14.987 22.8355 14.5327 22.4676 14.2295 22.1289V22.1279C13.5066 21.3214 12.747 20.4982 12.0098 19.6602C11.2533 20.5162 10.4904 21.3629 9.72363 22.2012C9.42068 22.5323 9.03601 22.7833 8.5791 22.8701C8.11789 22.9577 7.67265 22.8609 7.28711 22.6533V22.6523C6.48442 22.2204 5.99041 21.3356 6.0293 20.4326V20.4316C6.05836 19.7713 6.36135 19.2891 6.68164 18.9346C7.55049 17.9726 8.41686 17.0083 9.28418 16.0439C8.22093 15.7611 7.20458 15.2902 6.2832 14.4912L6.28223 14.4902C6.16507 14.3884 5.9566 14.217 5.78027 14.0293H5.7793C5.40806 13.6338 5.15309 13.1524 5.10547 12.6006C5.05814 12.0513 5.22508 11.5336 5.51172 11.0781C5.79399 10.6296 6.21334 10.2873 6.74121 10.1553C7.19934 10.0407 7.66216 10.1035 8.08301 10.2842L8.26074 10.3682V10.3691C8.44116 10.4636 8.59902 10.5742 8.73145 10.6758C10.6478 12.1358 13.2672 12.1679 15.1738 10.7461V10.7471C15.4424 10.5248 15.778 10.302 16.1992 10.1816L16.2002 10.1807Z" stroke="black" stroke-width="1.80412"/>
</svg>
