<svg width="912" height="171" viewBox="0 0 912 171" fill="none" xmlns="http://www.w3.org/2000/svg">
<path d="M16.8802 68.3428L33.781 85.418L16.8802 102.493L0 85.418L16.8802 68.3428Z" fill="#ED1846"/>
<path d="M67.561 51.2461L84.4411 68.3422L67.561 85.4173L50.6602 68.3422L67.561 51.2461Z" fill="#234BA0"/>
<path d="M50.6614 68.3428L67.5622 85.418L50.6614 102.493L33.7812 85.418L50.6614 68.3428Z" fill="#234BA0"/>
<path d="M84.4427 68.3428L101.323 85.418L84.4427 102.493L67.5625 85.418L84.4427 68.3428Z" fill="#234BA0"/>
<path d="M67.561 85.417L84.4411 102.492L67.561 119.588L50.6602 102.492L67.561 85.417Z" fill="#234BA0"/>
<path d="M118.223 68.3428L135.103 85.418L118.223 102.493L101.322 85.418L118.223 68.3428Z" fill="#FDB51B"/>
<path d="M185.765 34.1719L202.666 51.2471L185.765 68.3431L168.885 51.2471L185.765 34.1719Z" fill="#FDB51B"/>
<path d="M168.884 51.2461L185.764 68.3422L168.884 85.4173L152.004 68.3422L168.884 51.2461Z" fill="#FDB51B"/>
<path d="M152.004 68.3428L168.884 85.418L152.004 102.493L135.104 85.418L152.004 68.3428Z" fill="#FDB51B"/>
<path d="M202.664 51.2461L219.545 68.3422L202.664 85.4173L185.764 68.3422L202.664 51.2461Z" fill="#FDB51B"/>
<path d="M168.884 85.417L185.764 102.492L168.884 119.588L152.004 102.492L168.884 85.417Z" fill="#FDB51B"/>
<path d="M253.327 34.1719L270.207 51.2471L253.327 68.3431L236.426 51.2471L253.327 34.1719Z" fill="#234BA0"/>
<path d="M236.425 51.2461L253.326 68.3422L236.425 85.4173L219.545 68.3422L236.425 51.2461Z" fill="#ED1846"/>
<path d="M219.546 68.3428L236.426 85.418L219.546 102.493L202.666 85.418L219.546 68.3428Z" fill="#FDB51B"/>
<path d="M202.664 85.417L219.545 102.492L202.664 119.588L185.764 102.492L202.664 85.417Z" fill="#FDB51B"/>
<path d="M185.765 102.493L202.666 119.589L185.765 136.664L168.885 119.589L185.765 102.493Z" fill="#FDB51B"/>
<path d="M270.206 51.2461L287.107 68.3422L270.206 85.4173L253.326 68.3422L270.206 51.2461Z" fill="#234BA0"/>
<path d="M253.327 68.3428L270.207 85.418L253.327 102.493L236.426 85.418L253.327 68.3428Z" fill="#ED1846"/>
<path d="M236.425 85.417L253.326 102.492L236.425 119.588L219.545 102.492L236.425 85.417Z" fill="#ED1846"/>
<path d="M337.768 17.0752L354.648 34.1713L337.768 51.2464L320.867 34.1713L337.768 17.0752Z" fill="#FDB51B"/>
<path d="M320.868 34.1719L337.769 51.2471L320.868 68.3431L303.988 51.2471L320.868 34.1719Z" fill="#FDB51B"/>
<path d="M303.988 51.2461L320.868 68.3422L303.988 85.4173L287.107 68.3422L303.988 51.2461Z" fill="#FDB51B"/>
<path d="M287.108 68.3428L303.988 85.418L287.108 102.493L270.207 85.418L287.108 68.3428Z" fill="#FDB51B"/>
<path d="M270.206 85.417L287.107 102.492L270.206 119.588L253.326 102.492L270.206 85.417Z" fill="#234BA0"/>
<path d="M253.327 102.493L270.207 119.589L253.327 136.664L236.426 119.589L253.327 102.493Z" fill="#234BA0"/>
<path d="M388.429 0L405.309 17.0752L388.429 34.1713L371.549 17.0752L388.429 0Z" fill="#234BA0"/>
<path d="M371.549 17.0752L388.429 34.1713L371.549 51.2464L354.648 34.1713L371.549 17.0752Z" fill="#ED1846"/>
<path d="M354.648 34.1719L371.549 51.2471L354.648 68.3431L337.768 51.2471L354.648 34.1719Z" fill="#ED1846"/>
<path d="M337.768 51.2461L354.648 68.3422L337.768 85.4173L320.867 68.3422L337.768 51.2461Z" fill="#ED1846"/>
<path d="M320.868 68.3428L337.769 85.418L320.868 102.493L303.988 85.418L320.868 68.3428Z" fill="#ED1846"/>
<path d="M303.988 85.417L320.868 102.492L303.988 119.588L287.107 102.492L303.988 85.417Z" fill="#FDB51B"/>
<path d="M371.549 51.2461L388.429 68.3422L371.549 85.4173L354.648 68.3422L371.549 51.2461Z" fill="#ED1846"/>
<path d="M337.768 85.417L354.648 102.492L337.768 119.588L320.867 102.492L337.768 85.417Z" fill="#ED1846"/>
<path d="M320.868 102.493L337.769 119.589L320.868 136.664L303.988 119.589L320.868 102.493Z" fill="#FDB51B"/>
<path d="M388.429 68.3428L405.309 85.418L388.429 102.493L371.549 85.418L388.429 68.3428Z" fill="#FDB51B"/>
<path d="M371.549 85.417L388.429 102.492L371.549 119.588L354.648 102.492L371.549 85.417Z" fill="#ED1846"/>
<path d="M354.648 102.493L371.549 119.589L354.648 136.664L337.768 119.589L354.648 102.493Z" fill="#ED1846"/>
<path d="M337.768 119.589L354.648 136.664L337.768 153.76L320.867 136.664L337.768 119.589Z" fill="#FDB51B"/>
<path d="M439.091 51.2461L455.992 68.3422L439.091 85.4173L422.211 68.3422L439.091 51.2461Z" fill="#ED1846"/>
<path d="M472.872 51.2461L489.753 68.3422L472.872 85.4173L455.992 68.3422L472.872 51.2461Z" fill="#ED1846"/>
<path d="M371.549 119.589L388.429 136.664L371.549 153.76L354.648 136.664L371.549 119.589Z" fill="#ED1846"/>
<path d="M523.532 0L540.433 17.0752L523.532 34.1713L506.652 17.0752L523.532 0Z" fill="#234BA0"/>
<path d="M455.991 68.3428L472.871 85.418L455.991 102.493L439.09 85.418L455.991 68.3428Z" fill="#ED1846"/>
<path d="M388.429 136.664L405.309 153.76L388.429 170.835L371.549 153.76L388.429 136.664Z" fill="#234BA0"/>
<path d="M540.434 17.0752L557.314 34.1713L540.434 51.2464L523.533 34.1713L540.434 17.0752Z" fill="#ED1846"/>
<path d="M455.991 102.493L472.871 119.589L455.991 136.664L439.09 119.589L455.991 102.493Z" fill="#ED1846"/>
<path d="M574.195 17.0752L591.095 34.1713L574.195 51.2464L557.314 34.1713L574.195 17.0752Z" fill="#FDB51B"/>
<path d="M557.314 34.1719L574.194 51.2471L557.314 68.3431L540.434 51.2471L557.314 34.1719Z" fill="#ED1846"/>
<path d="M540.434 51.2461L557.314 68.3422L540.434 85.4173L523.533 68.3422L540.434 51.2461Z" fill="#ED1846"/>
<path d="M523.532 68.3428L540.433 85.418L523.532 102.493L506.652 85.418L523.532 68.3428Z" fill="#FDB51B"/>
<path d="M591.094 34.1719L607.974 51.2471L591.094 68.3431L574.193 51.2471L591.094 34.1719Z" fill="#FDB51B"/>
<path d="M574.195 51.2461L591.095 68.3422L574.195 85.4173L557.314 68.3422L574.195 51.2461Z" fill="#ED1846"/>
<path d="M540.434 85.417L557.314 102.492L540.434 119.588L523.533 102.492L540.434 85.417Z" fill="#ED1846"/>
<path d="M607.976 51.2461L624.856 68.3422L607.976 85.4173L591.096 68.3422L607.976 51.2461Z" fill="#FDB51B"/>
<path d="M591.094 68.3428L607.974 85.418L591.094 102.493L574.193 85.418L591.094 68.3428Z" fill="#ED1846"/>
<path d="M574.195 85.417L591.095 102.492L574.195 119.588L557.314 102.492L574.195 85.417Z" fill="#ED1846"/>
<path d="M557.314 102.493L574.194 119.589L557.314 136.664L540.434 119.589L557.314 102.493Z" fill="#ED1846"/>
<path d="M540.434 119.589L557.314 136.664L540.434 153.76L523.533 136.664L540.434 119.589Z" fill="#ED1846"/>
<path d="M523.532 136.664L540.433 153.76L523.532 170.835L506.652 153.76L523.532 136.664Z" fill="#234BA0"/>
<path d="M658.636 34.1719L675.537 51.2471L658.636 68.3431L641.756 51.2471L658.636 34.1719Z" fill="#234BA0"/>
<path d="M641.756 51.2461L658.636 68.3422L641.756 85.4173L624.855 68.3422L641.756 51.2461Z" fill="#234BA0"/>
<path d="M624.855 68.3428L641.756 85.418L624.855 102.493L607.975 85.418L624.855 68.3428Z" fill="#FDB51B"/>
<path d="M607.976 85.417L624.856 102.492L607.976 119.588L591.096 102.492L607.976 85.417Z" fill="#FDB51B"/>
<path d="M591.094 102.493L607.974 119.589L591.094 136.664L574.193 119.589L591.094 102.493Z" fill="#FDB51B"/>
<path d="M574.195 119.589L591.095 136.664L574.195 153.76L557.314 136.664L574.195 119.589Z" fill="#FDB51B"/>
<path d="M675.537 51.2461L692.418 68.3422L675.537 85.4173L658.637 68.3422L675.537 51.2461Z" fill="#ED1846"/>
<path d="M658.636 68.3428L675.537 85.418L658.636 102.493L641.756 85.418L658.636 68.3428Z" fill="#ED1846"/>
<path d="M641.756 85.417L658.636 102.492L641.756 119.588L624.855 102.492L641.756 85.417Z" fill="#234BA0"/>
<path d="M726.198 34.1719L743.078 51.2471L726.198 68.3431L709.297 51.2471L726.198 34.1719Z" fill="#FDB51B"/>
<path d="M709.298 51.2461L726.199 68.3422L709.298 85.4173L692.418 68.3422L709.298 51.2461Z" fill="#FDB51B"/>
<path d="M692.417 68.3428L709.297 85.418L692.417 102.493L675.537 85.418L692.417 68.3428Z" fill="#FDB51B"/>
<path d="M675.537 85.417L692.418 102.492L675.537 119.588L658.637 102.492L675.537 85.417Z" fill="#ED1846"/>
<path d="M658.636 102.493L675.537 119.589L658.636 136.664L641.756 119.589L658.636 102.493Z" fill="#234BA0"/>
<path d="M743.077 51.2461L759.978 68.3422L743.077 85.4173L726.197 68.3422L743.077 51.2461Z" fill="#FDB51B"/>
<path d="M709.298 85.417L726.199 102.492L709.298 119.588L692.418 102.492L709.298 85.417Z" fill="#FDB51B"/>
<path d="M759.979 68.3428L776.859 85.418L759.979 102.493L743.078 85.418L759.979 68.3428Z" fill="#FDB51B"/>
<path d="M743.077 85.417L759.978 102.492L743.077 119.588L726.197 102.492L743.077 85.417Z" fill="#FDB51B"/>
<path d="M726.198 102.493L743.078 119.589L726.198 136.664L709.297 119.589L726.198 102.493Z" fill="#FDB51B"/>
<path d="M793.74 68.3428L810.64 85.418L793.74 102.493L776.859 85.418L793.74 68.3428Z" fill="#FDB51B"/>
<path d="M844.42 51.2461L861.3 68.3422L844.42 85.4173L827.52 68.3422L844.42 51.2461Z" fill="#234BA0"/>
<path d="M827.521 68.3428L844.422 85.418L827.521 102.493L810.641 85.418L827.521 68.3428Z" fill="#234BA0"/>
<path d="M861.302 68.3428L878.182 85.418L861.302 102.493L844.422 85.418L861.302 68.3428Z" fill="#234BA0"/>
<path d="M844.42 85.417L861.3 102.492L844.42 119.588L827.52 102.492L844.42 85.417Z" fill="#234BA0"/>
<path d="M895.082 68.3428L911.963 85.418L895.082 102.493L878.182 85.418L895.082 68.3428Z" fill="#ED1846"/>
</svg>
