<svg width="123" height="45" viewBox="0 0 123 45" fill="none" xmlns="http://www.w3.org/2000/svg">
<path d="M120.919 34.8903C121.466 34.9665 121.971 34.5848 122.047 34.0378C122.123 33.4908 121.742 32.9856 121.195 32.9094L120.919 34.8903ZM68.7077 4.10587L68.026 3.3742L68.7077 4.10587ZM89.6473 33.8997L90.4788 34.4552L89.6473 33.8997ZM0.922405 29.3739C0.375119 29.4481 -0.00844491 29.9518 0.0656911 30.4991L1.27381 39.4176C1.34794 39.9649 1.85171 40.3485 2.39899 40.2744C2.94628 40.2002 3.32984 39.6965 3.25571 39.1492L2.18183 31.2216L10.1094 30.1477C10.6567 30.0736 11.0403 29.5698 10.9661 29.0225C10.892 28.4752 10.3882 28.0917 9.84095 28.1658L0.922405 29.3739ZM121.057 33.8998L121.195 32.9094C108.501 31.1407 90.6914 28.2051 78.4815 23.4961C75.4366 22.3217 72.7698 21.048 70.6303 19.672C68.4831 18.291 66.9245 16.8434 66.0238 15.3448C65.1424 13.8781 64.8767 12.3445 65.3327 10.6738C65.7994 8.96371 67.0487 7.0182 69.3893 4.83754L68.7077 4.10587L68.026 3.3742C65.5352 5.69476 64.0041 7.94576 63.4032 10.1472C62.7916 12.3879 63.1711 14.4806 64.3096 16.375C65.4288 18.2373 67.2647 19.8854 69.5485 21.3542C71.84 22.828 74.6408 24.1584 77.7618 25.3621C90.2155 30.1651 108.243 33.124 120.919 34.8903L121.057 33.8998ZM68.7077 4.10587L69.3893 4.83754C71.046 3.29404 72.6487 2.46399 74.1552 2.15009C75.6564 1.83729 77.1297 2.02263 78.5598 2.61893C81.4578 3.82724 84.1727 6.7274 86.3107 10.5031C88.4361 14.2566 89.9163 18.7463 90.4225 22.9407C90.9327 27.1681 90.4346 30.9211 88.8158 33.3442L89.6473 33.8997L90.4788 34.4552C92.4841 31.4537 92.9424 27.1289 92.4081 22.7011C91.8698 18.2405 90.3048 13.4977 88.051 9.5176C85.8098 5.5596 82.8116 2.22482 79.3295 0.772967C77.5696 0.0391928 75.6862 -0.211863 73.7472 0.192144C71.8136 0.595051 69.8928 1.635 68.026 3.3742L68.7077 4.10587ZM89.6473 33.8997L88.8158 33.3442C86.2529 37.1802 80.8402 39.6303 75.1777 41.1053C69.5721 42.5655 64.0018 43 61.4593 43V44V45C64.1518 45 69.8933 44.5486 75.6818 43.0408C81.4134 41.5478 87.4773 38.9477 90.4788 34.4552L89.6473 33.8997ZM61.4593 44V43C48.0144 43 35.8084 41.7426 25.5794 39.4265C15.3359 37.1071 7.14135 33.7409 1.66243 29.5692L1.05664 30.3649L0.450852 31.1605C6.24711 35.5738 14.7504 39.0251 25.1378 41.3771C35.5396 43.7323 47.8974 45 61.4593 45V44Z" fill="#FDB51B"/>
</svg>
