<svg width="37" height="157" viewBox="0 0 37 157" fill="none" xmlns="http://www.w3.org/2000/svg">
<path d="M32.4436 156.968C32.9953 156.993 33.4626 156.565 33.4872 156.014C33.5118 155.462 33.0845 154.995 32.5328 154.97L32.4436 156.968ZM23.4758 73.6032L22.6277 74.133L23.4758 73.6032ZM4.54712 82.077L3.84334 82.7874L4.54712 82.077ZM36.4848 2.03136C36.5163 1.47998 36.0948 1.00746 35.5434 0.975961L26.5581 0.462689C26.0067 0.431193 25.5342 0.852646 25.5027 1.40403C25.4712 1.95542 25.8926 2.42794 26.444 2.45943L34.431 2.91568L33.9747 10.9027C33.9432 11.454 34.3647 11.9266 34.9161 11.9581C35.4675 11.9896 35.94 11.5681 35.9715 11.0167L36.4848 2.03136ZM32.4882 155.969L32.5328 154.97C25.6741 154.664 20.3378 152.982 16.2362 150.348C12.1378 147.715 9.21778 144.097 7.24149 139.831C3.2725 131.262 3.11828 120.085 4.97903 109.234C6.83645 98.4018 10.6747 88.0517 14.5183 81.23C16.4525 77.797 18.3311 75.3611 19.886 74.171C20.6679 73.5726 21.2422 73.3863 21.6179 73.3978C21.9153 73.407 22.2604 73.5449 22.6277 74.133L23.4758 73.6032L24.324 73.0734C23.6952 72.0667 22.8016 71.4332 21.6793 71.3988C20.6353 71.3667 19.6088 71.8646 18.6705 72.5828C16.785 74.0259 14.7452 76.7528 12.7758 80.2482C8.81199 87.2835 4.90127 97.8536 3.00781 108.896C1.11768 119.918 1.21067 131.569 5.4267 140.671C7.54292 145.24 10.6999 149.169 15.1553 152.03C19.6076 154.89 25.3021 156.649 32.4436 156.968L32.4882 155.969ZM23.4758 73.6032L22.6277 74.133C23.2781 75.1742 23.5369 76.0845 23.5477 76.8668C23.5583 77.6438 23.3256 78.3634 22.8796 79.0342C21.965 80.4098 20.1526 81.5709 17.8525 82.3421C15.5766 83.1052 12.9629 83.4381 10.6205 83.2701C8.24514 83.0997 6.3235 82.4291 5.2509 81.3665L4.54712 82.077L3.84334 82.7874C5.41015 84.3395 7.90076 85.0801 10.4774 85.265C13.0872 85.4522 15.9655 85.0843 18.4883 84.2383C20.987 83.4005 23.2802 82.0441 24.5451 80.1415C25.1889 79.1732 25.5643 78.0635 25.5475 76.8394C25.5308 75.6207 25.1265 74.3582 24.324 73.0734L23.4758 73.6032ZM4.54712 82.077L5.2509 81.3665C3.50513 79.6371 2.72763 76.489 2.5184 73.1785C2.31289 69.9268 2.67097 66.8023 2.94068 65.4127L1.959 65.2221L0.977319 65.0316C0.679009 66.5686 0.304944 69.8643 0.522383 73.3047C0.736114 76.6863 1.53669 80.5023 3.84334 82.7874L4.54712 82.077ZM1.959 65.2221L2.94068 65.4127C3.64938 61.7612 5.69137 56.3477 8.49821 50.1372C11.2949 43.9492 14.8172 37.0423 18.44 30.4313C22.0626 23.8207 25.7792 17.5179 28.9615 12.5384C30.553 10.0481 32.0062 7.89633 33.2436 6.20574C34.495 4.49619 35.4846 3.31586 36.152 2.72062L35.4864 1.97433L34.8208 1.22805C33.9824 1.97581 32.8866 3.3074 31.6298 5.02444C30.3591 6.76045 28.8813 8.94994 27.2763 11.4614C24.0655 16.4853 20.3261 22.8277 16.686 29.4702C13.0462 36.1123 9.49906 43.0665 6.6757 49.3135C3.86251 55.5381 1.73385 61.1337 0.977319 65.0316L1.959 65.2221Z" fill="#FDB51B"/>
</svg>
