<svg xmlns="http://www.w3.org/2000/svg" width="88" height="89" fill="none" viewBox="0 0 88 89"><g clip-path="url(#a)"><path fill="#234BA0" d="M5.5003 39.2931 0 44.7925l5.5003 5.5042 5.5003-5.5042-5.5003-5.4994Z"/><path fill="#234BA0" d="m11.0005 28.2846-5.50026 5.5043L16.5009 44.7973 5.50024 55.8059l5.50026 5.5042 16.5058-16.5128-16.5058-16.5127ZM71.504 44.7973l10.9958-11.0084-5.5003-5.5043-16.4961 16.5127 16.4961 16.5128 5.5003-5.5042L71.504 44.7973Z"/><path fill="#234BA0" d="m82.4998 39.298-5.5003 5.5042 5.5003 5.5043 5.5003-5.5043-5.5003-5.5042Z"/><path fill="#ED1846" d="m49.3377 39.2931-5.4469 5.4508-5.442-5.4508-5.5003 5.5042 10.9423 11.0085 10.9424-11.0085-5.4955-5.5042ZM44.119.82164l-5.5003 5.50425 5.5003 5.50421 5.5003-5.50421L44.119.82164Z"/><path fill="#ED1846" d="m44.1188 28.338 16.5009-16.5127-5.5003-5.50427L44.1188 17.3344 33.1182 6.32589l-5.5003 5.50421L44.1188 28.338ZM44.0025 77.818l-5.5003 5.5043 5.5003 5.5042 5.5003-5.5042-5.5003-5.5043Z"/><path fill="#ED1846" d="M44.0024 61.3101 27.5063 77.818l5.5003 5.5043 11.0007-11.0086 11.0006 11.0086 5.5003-5.5043-16.5058-16.5079Z"/><path fill="#FBB416" d="M22.0011 50.3016 11.0005 61.3101l5.5003 5.5043 11.0006-11.0085-5.5003-5.5043ZM16.5008 22.7803l-5.5003 5.5043 11.0006 11.0085 5.5003-5.5043-11.0006-11.0085ZM66.0037 50.3016l-5.5003 5.5043L71.504 66.8144l5.5003-5.5043-11.0006-11.0085ZM71.504 22.7852 60.5034 33.7937l5.5003 5.5043 11.0006-11.0085-5.5003-5.5043ZM27.618 11.8301l-5.5003 5.5043 11.0006 11.0085 5.5003-5.5043L27.618 11.8301ZM60.6197 11.8301 49.6191 22.8386l5.5003 5.5043 11.0007-11.0085-5.5004-5.5043ZM33.0018 61.3101 22.0012 72.3186l5.5003 5.5043 11.0006-11.0085-5.5003-5.5043ZM55.003 61.3052l-5.5003 5.5043L60.5033 77.818l5.5003-5.5043L55.003 61.3052Z"/></g><defs><clipPath id="a"><path fill="#fff" d="M0 .82164h88v88H0z"/></clipPath></defs></svg>